# xmcd
#
# Track frame offsets:
#	182
#	18932
#	39755
#	59067
#	81802
#	103387
#	123170
#	143995
#	167982
#	189382
#	209792
#
# Disc length: 3061 seconds
#
# Revision: 6
# Processed by: cddbd v1.5.2PL0 Copyright (c) Steve Scherf et al.
# Submitted via: EasyCDDAExtractor 15.3.0.1
#
DISCID=9e0bf30b
DTITLE=Ricardo Montaner - Es Asi
DYEAR=1997
DGENRE=Latin
TTITLE0=Y Si Te Miro
TTITLE1=Tanto Que Decirte
TTITLE2=La Mujer De Mi Vida
TTITLE3=Es Asi
TTITLE4=Dame Olvido
TTITLE5=Este Amor
TTITLE6=Para Llorar
TTITLE7=Ojala
TTITLE8=Tributo Al Amor
TTITLE9=Te Pienso
TTITLE10=Una Palabra
EXTD=0
EXTT0=
EXTT1=
EXTT2=
EXTT3=
EXTT4=
EXTT5=
EXTT6=
EXTT7=
EXTT8=
EXTT9=
EXTT10=
PLAYORDER=
